<svg xmlns="http://www.w3.org/2000/svg" viewBox="0 0 100 100">
  <defs>
    <linearGradient id="grad" x1="0%" y1="0%" x2="100%" y2="100%">
      <stop offset="0%" style="stop-color:#6366f1;stop-opacity:1" />
      <stop offset="100%" style="stop-color:#8b5cf6;stop-opacity:1" />
    </linearGradient>
  </defs>
  <rect x="5" y="5" width="90" height="90" rx="15" fill="url(#grad)"/>
  <path d="M25 75 L25 25 L50 25 C60 25 65 30 65 40 C65 50 60 55 50 55 L35 55 L35 75 Z M35 35 L35 45 L48 45 C52 45 55 43 55 40 C55 37 52 35 48 35 Z" fill="white"/>
  <path d="M55 45 L55 75 L65 75 L65 55 L75 55 L75 45 Z" fill="white"/>
</svg>
